<svg width="1999" height="2073" viewBox="0 0 1999 2073" fill="none" xmlns="http://www.w3.org/2000/svg">
<circle cx="999.5" cy="946.5" r="946.5" fill="white"/>
<g clip-path="url(#clip0_1_7)">
<path fill-rule="evenodd" clip-rule="evenodd" d="M443.251 815.261C340.779 935.602 242.527 1084.84 241.542 1196.38C241.159 1238.35 254.557 1274.99 286.696 1302.74C332.949 1342.71 383.91 1356.8 434.623 1356.89C508.731 1356.99 582.321 1327.09 639.94 1304.04C736.978 1265.23 1809.64 799.415 1809.64 799.415C1819.99 794.229 1818.05 787.769 1805.1 790.994C1799.87 792.3 637.337 1107.35 637.337 1107.35C615.317 1113.58 592.563 1116.84 569.679 1117.04C480.336 1117.56 400.835 1067.97 401.478 963.468C401.727 922.576 414.244 873.264 443.251 815.261Z" fill="black"/>
</g>
<defs>
<clipPath id="clip0_1_7">
<rect width="1999" height="1999" fill="white" transform="translate(0 74)"/>
</clipPath>
</defs>
</svg>
